name C:\Users\antoi\Documents\MyRepositories\upper-imu-dc\Results\main_tracking\Case_76\FLX01_linearAccelerations_groundFrame.mot
datacolumns 4
datarows 47
range 0.51000000 0.97000000
endheader 
time	radius_imu_x	radius_imu_y	radius_imu_z	
          0.51000000	          0.20358676	          9.86725968	         -0.18354449	
          0.52000000	          0.26181912	          9.86601398	         -0.23093180	
          0.53000000	          0.30829981	          9.87682019	         -0.21941024	
          0.54000000	          0.36070304	          9.89725048	         -0.18745838	
          0.55000000	          0.42055603	          9.92205357	         -0.14621984	
          0.56000000	          0.48648292	          9.95034752	         -0.09995950	
          0.57000000	          0.55688341	          9.98177113	         -0.04895843	
          0.58000000	          0.62997338	         10.01640017	          0.00706770	
          0.59000000	          0.70438065	         10.05426446	          0.06801854	
          0.60000000	          0.77919900	         10.09533132	          0.13331776	
          0.61000000	          0.85382726	         10.13952081	          0.20178721	
          0.62000000	          0.92798974	         10.18671473	          0.27186057	
          0.63000000	          1.00175146	         10.23674943	          0.34139793	
          0.64000000	          1.07547821	         10.28940406	          0.40791148	
          0.65000000	          1.14961279	         10.34435002	          0.46888532	
          0.66000000	          1.22447946	         10.40118971	          0.52187845	
          0.67000000	          1.30016497	         10.45941738	          0.56453817	
          0.68000000	          1.37650254	         10.51842326	          0.59461270	
          0.69000000	          1.45310240	         10.57751763	          0.60995565	
          0.70000000	          1.52938930	         10.63594111	          0.60856613	
          0.71000000	          1.60459554	         10.69290624	          0.58869712	
          0.72000000	          1.67772293	         10.74761478	          0.54894693	
          0.73000000	          1.74751147	         10.79928499	          0.48845808	
          0.74000000	          1.81257871	         10.84740720	          0.40754366	
          0.75000000	          1.87166546	         10.89157313	          0.30723380	
          0.76000000	          1.92263022	         10.93075331	          0.18770276	
          0.77000000	          1.96509168	         10.96596602	          0.05414258	
          0.78000000	          1.99769895	         10.99657719	         -0.09214937	
          0.79000000	          2.01770289	         11.02234450	         -0.24728503	
          0.80000000	          2.02417237	         11.04543970	         -0.40571182	
          0.81000000	          2.03046655	         11.07469127	         -0.54103439	
          0.82000000	          1.95183352	         11.11869400	         -0.61346847	
          0.83000000	          1.88220336	         11.17184738	         -0.65196438	
          0.84000000	          1.79789543	         11.22451935	         -0.68754469	
          0.85000000	          1.69798764	         11.27628070	         -0.71285812	
          0.86000000	          1.58828048	         11.32685810	         -0.73172007	
          0.87000000	          1.47345651	         11.37831101	         -0.74125686	
          0.88000000	          1.35612897	         11.43107136	         -0.74234228	
          0.89000000	          1.23162533	         11.47581959	         -0.75038044	
          0.90000000	          1.10403095	         11.52049743	         -0.74995080	
          0.91000000	          0.97239558	         11.56009718	         -0.74893123	
          0.92000000	          0.83795838	         11.59216365	         -0.75133266	
          0.93000000	          0.70208654	         11.61798782	         -0.75358728	
          0.94000000	          0.56550413	         11.63533094	         -0.75872915	
          0.95000000	          0.43090079	         11.64547360	         -0.76493167	
          0.96000000	          0.29929115	         11.64848646	         -0.77196015	
          0.97000000	          0.17142821	         11.64330777	         -0.78184138	
